<svg width="44" height="35" viewBox="0 0 44 35" fill="none" xmlns="http://www.w3.org/2000/svg">
<path d="M36.5005 1.46505C37.2408 0.73482 38.2467 0.320665 39.2985 0.313094C40.3503 0.305523 41.3624 0.70515 42.1137 1.42464C42.8649 2.14413 43.2941 3.12498 43.3076 4.15282C43.321 5.18066 42.9176 6.17192 42.1855 6.90996L21.0017 32.7905C20.6378 33.1734 20.1987 33.4807 19.7105 33.6941C19.2224 33.9075 18.6952 34.0225 18.1606 34.0324C17.6259 34.0423 17.0947 33.9467 16.5987 33.7515C16.1026 33.5563 15.6519 33.2653 15.2735 32.8961L1.22843 19.1756C0.482075 18.4458 0.0629181 17.4562 0.0631715 16.4244C0.0634249 15.3927 0.483068 14.4033 1.22978 13.6739C1.9765 12.9445 2.98912 12.5348 4.04488 12.5351C5.10064 12.5353 6.11306 12.9454 6.85942 13.6752L17.9674 24.5333L36.3951 1.58651C36.4286 1.54476 36.4647 1.50508 36.5032 1.46769L36.5005 1.46505Z" fill="#38CB89"/>
</svg>
