<svg width="9" height="14" viewBox="0 0 9 14" fill="none" xmlns="http://www.w3.org/2000/svg">
<path d="M4.58334 0.408195L4.62063 0.403695L4.67848 0.401123L4.7267 0.403051L4.8077 0.41398L4.87905 0.433266L4.95041 0.461552L5.01341 0.49498L5.08027 0.542551L5.13298 0.58948L8.6687 4.12519C8.78399 4.24088 8.85093 4.39612 8.85592 4.55937C8.8609 4.72262 8.80356 4.88165 8.69554 5.00416C8.58752 5.12667 8.43691 5.20346 8.27432 5.21895C8.11173 5.23444 7.94933 5.18746 7.82013 5.08755L7.7597 5.03419L5.32134 2.59648V12.6154C5.32116 12.7793 5.25842 12.9369 5.14594 13.056C5.03346 13.1751 4.87973 13.2468 4.71616 13.2564C4.55259 13.266 4.39152 13.2128 4.26588 13.1077C4.14023 13.0025 4.05948 12.8533 4.04012 12.6906L4.03562 12.6154V2.59648L1.59727 5.03419C1.48657 5.14488 1.33929 5.21137 1.18306 5.22119C1.02683 5.23102 0.872385 5.1835 0.748697 5.08755L0.688268 5.03419C0.577583 4.9235 0.511091 4.77622 0.501268 4.61999C0.491444 4.46376 0.538964 4.30931 0.634911 4.18562L0.688268 4.12519L4.22398 0.58948C4.24642 0.56696 4.27049 0.546118 4.29598 0.527123L4.3667 0.48148L4.43998 0.446766L4.50748 0.424266L4.58334 0.408195Z" fill="white"/>
</svg>
