<svg width="9" height="14" viewBox="0 0 9 14" fill="none" xmlns="http://www.w3.org/2000/svg">
<path d="M4.41666 13.608L4.37938 13.6128L4.32152 13.6155L4.2733 13.6134L4.1923 13.6019L4.12095 13.5816L4.04959 13.5517L3.98659 13.5164L3.91973 13.4662L3.86702 13.4167L0.331304 9.68451C0.216009 9.5624 0.149071 9.39854 0.144086 9.22622C0.139101 9.0539 0.196442 8.88603 0.304463 8.75672C0.412485 8.62741 0.563087 8.54634 0.72568 8.52999C0.888273 8.51364 1.05067 8.56324 1.17988 8.66869L1.2403 8.72502L3.67866 11.2982L3.67866 0.722621C3.67884 0.549668 3.74158 0.383315 3.85406 0.257552C3.96654 0.131788 4.12027 0.056107 4.28384 0.0459703C4.44741 0.0358347 4.60848 0.0920089 4.73412 0.203017C4.85977 0.314024 4.94052 0.471484 4.95987 0.643228L4.96437 0.722621L4.96438 11.2982L7.40273 8.72501C7.51343 8.60818 7.66071 8.538 7.81694 8.52763C7.97317 8.51726 8.12761 8.56742 8.2513 8.66869L8.31173 8.72501C8.42242 8.84186 8.48891 8.99732 8.49873 9.16223C8.50856 9.32714 8.46104 9.49017 8.36509 9.62073L8.31173 9.68451L4.77602 13.4167C4.75358 13.4404 4.72951 13.4624 4.70402 13.4825L4.6333 13.5307L4.56002 13.5673L4.49252 13.5911L4.41666 13.608Z" fill="white"/>
</svg>
